# xmcd CD database file
#
# Track frame offsets:
#	150
#	43227
#	59727
#	114690
#	159005
#	196772
#	226870
#	249317
#	264080
#
# Disc length: 4297 seconds
#
# Revision: 1
# Processed by: cddbd v1.4PL0 Copyright (c) Steve Scherf et al.
# Submitted via: CDex 1.50Beta7
#
DISCID=6d10c709
DTITLE=Sun Ra - Un Mondo Eliocentrico
DYEAR=2002
DGENRE=Jazz
TTITLE0=Fate In A Pleasant Mood
TTITLE1=Hocus Pocus
TTITLE2=Dawn
TTITLE3=Second Star To The Right
TTITLE4=Discipline 27
TTITLE5=A Quiet Place In The Universe
TTITLE6=Space Is The Place - We Travel The Spaceways - Second Stop Is Jupiter - Outer Spaceways Incorporated
TTITLE7=Yeah Man
TTITLE8=String Singhs - Discipline 27 - I'll Wait For You
EXTD=YEAR: 2002
EXTT0=
EXTT1=
EXTT2=
EXTT3=
EXTT4=
EXTT5=
EXTT6=
EXTT7=
EXTT8=
PLAYORDER=
